<?xml version="1.0" encoding="UTF-8" standalone="no"?>
<!DOCTYPE svg PUBLIC "-//W3C//DTD SVG 1.1//EN"
 "http://www.w3.org/Graphics/SVG/1.1/DTD/svg11.dtd">
<!-- Generated by graphviz version 3.0.0 (20220226.1711)
 -->
<!-- Title: prob_graph Pages: 1 -->
<svg width="540pt" height="635pt"
 viewBox="0.00 0.00 540.00 634.92" xmlns="http://www.w3.org/2000/svg" xmlns:xlink="http://www.w3.org/1999/xlink">
<g id="graph0" class="graph" transform="scale(0.797637 0.797637) rotate(0) translate(4 792)">
<title>prob_graph</title>
<polygon fill="white" stroke="transparent" points="-4,4 -4,-792 673,-792 673,4 -4,4"/>
<!-- 1 -->
<g id="node1" class="node">
<title>1</title>
<polygon fill="none" stroke="green" stroke-width="2" points="200.5,-745 200.5,-787 343.5,-787 343.5,-745 200.5,-745"/>
<text text-anchor="middle" x="210.5" y="-762.9" font-family="Times,serif" font-size="12.00"> </text>
<polyline fill="none" stroke="green" stroke-width="2" points="220.5,-745 220.5,-787 "/>
<text text-anchor="middle" x="272" y="-773.4" font-family="Times,serif" font-size="12.00">remainingUpdates</text>
<polyline fill="none" stroke="green" stroke-width="2" points="220.5,-766 323.5,-766 "/>
<text text-anchor="middle" x="272" y="-752.4" font-family="Times,serif" font-size="12.00"># states: 1</text>
<polyline fill="none" stroke="green" stroke-width="2" points="323.5,-745 323.5,-787 "/>
<text text-anchor="middle" x="333.5" y="-762.9" font-family="Times,serif" font-size="12.00"> </text>
</g>
<!-- 2 -->
<g id="node2" class="node">
<title>2</title>
<polygon fill="none" stroke="blue" points="203.5,-652 203.5,-694 340.5,-694 340.5,-652 203.5,-652"/>
<text text-anchor="middle" x="213.5" y="-669.9" font-family="Times,serif" font-size="12.00"> </text>
<polyline fill="none" stroke="blue" points="223.5,-652 223.5,-694 "/>
<text text-anchor="middle" x="272" y="-680.4" font-family="Times,serif" font-size="12.00">&lt;&lt; undefined &gt;&gt;</text>
<polyline fill="none" stroke="blue" points="223.5,-673 320.5,-673 "/>
<text text-anchor="middle" x="272" y="-659.4" font-family="Times,serif" font-size="12.00"># states: 6</text>
<polyline fill="none" stroke="blue" points="320.5,-652 320.5,-694 "/>
<text text-anchor="middle" x="330.5" y="-669.9" font-family="Times,serif" font-size="12.00"> </text>
</g>
<!-- 1&#45;&gt;2 -->
<g id="edge1" class="edge">
<title>1&#45;&gt;2</title>
<path fill="none" stroke="black" d="M272,-744.8C272,-732.9 272,-717.62 272,-704.3"/>
<polygon fill="black" stroke="black" points="275.5,-704.14 272,-694.14 268.5,-704.14 275.5,-704.14"/>
<text text-anchor="middle" x="329.5" y="-716.9" font-family="Times,serif" font-size="12.00">SETUP_CONSTANTS</text>
</g>
<!-- 9 -->
<g id="node3" class="node">
<title>9</title>
<polygon fill="none" stroke="green" points="560.5,-559 560.5,-601 663.5,-601 663.5,-559 560.5,-559"/>
<text text-anchor="middle" x="570.5" y="-576.9" font-family="Times,serif" font-size="12.00"> </text>
<polyline fill="none" stroke="green" points="580.5,-559 580.5,-601 "/>
<text text-anchor="middle" x="612" y="-587.4" font-family="Times,serif" font-size="12.00">6</text>
<polyline fill="none" stroke="green" points="580.5,-580 643.5,-580 "/>
<text text-anchor="middle" x="612" y="-566.4" font-family="Times,serif" font-size="12.00"># states: 1</text>
<polyline fill="none" stroke="green" points="643.5,-559 643.5,-601 "/>
<text text-anchor="middle" x="653.5" y="-576.9" font-family="Times,serif" font-size="12.00"> </text>
</g>
<!-- 2&#45;&gt;9 -->
<g id="edge8" class="edge">
<title>2&#45;&gt;9</title>
<path fill="none" stroke="#806040" stroke-dasharray="5,2" d="M340.53,-660.72C377.42,-654.03 423.53,-644.67 464,-633.5 493.26,-625.42 525.06,-614.44 551.66,-604.61"/>
<polygon fill="#806040" stroke="#806040" points="553.06,-607.82 561.2,-601.05 550.61,-601.26 553.06,-607.82"/>
<text text-anchor="middle" x="552" y="-623.9" font-family="Times,serif" font-size="12.00">INITIALISATION</text>
</g>
<!-- 3 -->
<g id="node4" class="node">
<title>3</title>
<polygon fill="none" stroke="blue" points="257.5,-1 257.5,-43 360.5,-43 360.5,-1 257.5,-1"/>
<text text-anchor="middle" x="267.5" y="-18.9" font-family="Times,serif" font-size="12.00"> </text>
<polyline fill="none" stroke="blue" points="277.5,-1 277.5,-43 "/>
<text text-anchor="middle" x="309" y="-29.4" font-family="Times,serif" font-size="12.00">0</text>
<polyline fill="none" stroke="blue" points="277.5,-22 340.5,-22 "/>
<text text-anchor="middle" x="309" y="-8.4" font-family="Times,serif" font-size="12.00"># states: 6</text>
<polyline fill="none" stroke="blue" points="340.5,-1 340.5,-43 "/>
<text text-anchor="middle" x="350.5" y="-18.9" font-family="Times,serif" font-size="12.00"> </text>
</g>
<!-- 2&#45;&gt;3 -->
<g id="edge2" class="edge">
<title>2&#45;&gt;3</title>
<path fill="none" stroke="#806040" d="M203.36,-662.87C122.79,-650.18 0,-623.82 0,-581 0,-581 0,-581 0,-114 0,-62.98 156.98,-38.46 247.16,-28.58"/>
<polygon fill="#806040" stroke="#806040" points="247.71,-32.04 257.28,-27.5 246.97,-25.08 247.71,-32.04"/>
<text text-anchor="middle" x="46" y="-343.9" font-family="Times,serif" font-size="12.00">INITIALISATION</text>
</g>
<!-- 4 -->
<g id="node5" class="node">
<title>4</title>
<polygon fill="none" stroke="blue" points="72.5,-94 72.5,-136 175.5,-136 175.5,-94 72.5,-94"/>
<text text-anchor="middle" x="82.5" y="-111.9" font-family="Times,serif" font-size="12.00"> </text>
<polyline fill="none" stroke="blue" points="92.5,-94 92.5,-136 "/>
<text text-anchor="middle" x="124" y="-122.4" font-family="Times,serif" font-size="12.00">1</text>
<polyline fill="none" stroke="blue" points="92.5,-115 155.5,-115 "/>
<text text-anchor="middle" x="124" y="-101.4" font-family="Times,serif" font-size="12.00"># states: 6</text>
<polyline fill="none" stroke="blue" points="155.5,-94 155.5,-136 "/>
<text text-anchor="middle" x="165.5" y="-111.9" font-family="Times,serif" font-size="12.00"> </text>
</g>
<!-- 2&#45;&gt;4 -->
<g id="edge3" class="edge">
<title>2&#45;&gt;4</title>
<path fill="none" stroke="#806040" d="M203.46,-661.69C158.13,-650.53 107,-627.62 107,-581 107,-581 107,-581 107,-207 107,-186.31 111.3,-163.42 115.57,-145.77"/>
<polygon fill="#806040" stroke="#806040" points="118.97,-146.59 118.05,-136.04 112.19,-144.86 118.97,-146.59"/>
<text text-anchor="middle" x="153" y="-390.9" font-family="Times,serif" font-size="12.00">INITIALISATION</text>
</g>
<!-- 5 -->
<g id="node6" class="node">
<title>5</title>
<polygon fill="none" stroke="blue" points="191.5,-187 191.5,-229 294.5,-229 294.5,-187 191.5,-187"/>
<text text-anchor="middle" x="201.5" y="-204.9" font-family="Times,serif" font-size="12.00"> </text>
<polyline fill="none" stroke="blue" points="211.5,-187 211.5,-229 "/>
<text text-anchor="middle" x="243" y="-215.4" font-family="Times,serif" font-size="12.00">2</text>
<polyline fill="none" stroke="blue" points="211.5,-208 274.5,-208 "/>
<text text-anchor="middle" x="243" y="-194.4" font-family="Times,serif" font-size="12.00"># states: 5</text>
<polyline fill="none" stroke="blue" points="274.5,-187 274.5,-229 "/>
<text text-anchor="middle" x="284.5" y="-204.9" font-family="Times,serif" font-size="12.00"> </text>
</g>
<!-- 2&#45;&gt;5 -->
<g id="edge4" class="edge">
<title>2&#45;&gt;5</title>
<path fill="none" stroke="#806040" stroke-dasharray="5,2" d="M262.29,-651.89C244.27,-613.34 206.31,-525.92 193,-447.5 192.03,-441.8 191.61,-440.11 193,-434.5 195.29,-425.24 199.84,-424.5 203,-415.5 224.28,-354.94 235.2,-280.18 239.95,-239.28"/>
<polygon fill="#806040" stroke="#806040" points="243.45,-239.48 241.08,-229.16 236.49,-238.71 243.45,-239.48"/>
<text text-anchor="middle" x="239" y="-437.9" font-family="Times,serif" font-size="12.00">INITIALISATION</text>
</g>
<!-- 6 -->
<g id="node7" class="node">
<title>6</title>
<polygon fill="none" stroke="blue" points="270.5,-280 270.5,-322 373.5,-322 373.5,-280 270.5,-280"/>
<text text-anchor="middle" x="280.5" y="-297.9" font-family="Times,serif" font-size="12.00"> </text>
<polyline fill="none" stroke="blue" points="290.5,-280 290.5,-322 "/>
<text text-anchor="middle" x="322" y="-308.4" font-family="Times,serif" font-size="12.00">3</text>
<polyline fill="none" stroke="blue" points="290.5,-301 353.5,-301 "/>
<text text-anchor="middle" x="322" y="-287.4" font-family="Times,serif" font-size="12.00"># states: 4</text>
<polyline fill="none" stroke="blue" points="353.5,-280 353.5,-322 "/>
<text text-anchor="middle" x="363.5" y="-297.9" font-family="Times,serif" font-size="12.00"> </text>
</g>
<!-- 2&#45;&gt;6 -->
<g id="edge5" class="edge">
<title>2&#45;&gt;6</title>
<path fill="none" stroke="#806040" stroke-dasharray="5,2" d="M267.23,-651.73C259.28,-613.64 246.57,-529.46 272,-465.5 276.07,-455.27 283.82,-457.21 289,-447.5 308.52,-410.9 316.53,-363.17 319.79,-332.54"/>
<polygon fill="#806040" stroke="#806040" points="323.29,-332.76 320.76,-322.47 316.32,-332.09 323.29,-332.76"/>
<text text-anchor="middle" x="318" y="-483.9" font-family="Times,serif" font-size="12.00">INITIALISATION</text>
</g>
<!-- 7 -->
<g id="node8" class="node">
<title>7</title>
<polygon fill="none" stroke="blue" points="356.5,-373 356.5,-415 459.5,-415 459.5,-373 356.5,-373"/>
<text text-anchor="middle" x="366.5" y="-390.9" font-family="Times,serif" font-size="12.00"> </text>
<polyline fill="none" stroke="blue" points="376.5,-373 376.5,-415 "/>
<text text-anchor="middle" x="408" y="-401.4" font-family="Times,serif" font-size="12.00">4</text>
<polyline fill="none" stroke="blue" points="376.5,-394 439.5,-394 "/>
<text text-anchor="middle" x="408" y="-380.4" font-family="Times,serif" font-size="12.00"># states: 3</text>
<polyline fill="none" stroke="blue" points="439.5,-373 439.5,-415 "/>
<text text-anchor="middle" x="449.5" y="-390.9" font-family="Times,serif" font-size="12.00"> </text>
</g>
<!-- 2&#45;&gt;7 -->
<g id="edge6" class="edge">
<title>2&#45;&gt;7</title>
<path fill="none" stroke="#806040" stroke-dasharray="5,2" d="M284.04,-651.99C308.27,-611.65 361.19,-523.17 368,-508.5 380.8,-480.94 391.97,-448.05 399.23,-424.79"/>
<polygon fill="#806040" stroke="#806040" points="402.6,-425.73 402.19,-415.14 395.91,-423.68 402.6,-425.73"/>
<text text-anchor="middle" x="404" y="-530.9" font-family="Times,serif" font-size="12.00">INITIALISATION</text>
</g>
<!-- 8 -->
<g id="node9" class="node">
<title>8</title>
<polygon fill="none" stroke="blue" points="437.5,-466 437.5,-508 540.5,-508 540.5,-466 437.5,-466"/>
<text text-anchor="middle" x="447.5" y="-483.9" font-family="Times,serif" font-size="12.00"> </text>
<polyline fill="none" stroke="blue" points="457.5,-466 457.5,-508 "/>
<text text-anchor="middle" x="489" y="-494.4" font-family="Times,serif" font-size="12.00">5</text>
<polyline fill="none" stroke="blue" points="457.5,-487 520.5,-487 "/>
<text text-anchor="middle" x="489" y="-473.4" font-family="Times,serif" font-size="12.00"># states: 2</text>
<polyline fill="none" stroke="blue" points="520.5,-466 520.5,-508 "/>
<text text-anchor="middle" x="530.5" y="-483.9" font-family="Times,serif" font-size="12.00"> </text>
</g>
<!-- 2&#45;&gt;8 -->
<g id="edge7" class="edge">
<title>2&#45;&gt;8</title>
<path fill="none" stroke="#806040" stroke-dasharray="5,2" d="M329.78,-651.86C340.97,-646.72 352.24,-640.6 362,-633.5 407.24,-600.61 447.45,-548.8 469.97,-516.7"/>
<polygon fill="#806040" stroke="#806040" points="473.04,-518.41 475.84,-508.2 467.28,-514.43 473.04,-518.41"/>
<text text-anchor="middle" x="483" y="-576.9" font-family="Times,serif" font-size="12.00">INITIALISATION</text>
</g>
<!-- 9&#45;&gt;8 -->
<g id="edge15" class="edge">
<title>9&#45;&gt;8</title>
<path fill="none" stroke="black" d="M560.49,-562.3C541.27,-555.31 522.33,-547.25 515,-540.5 508.23,-534.26 502.99,-525.86 499.05,-517.62"/>
<polygon fill="black" stroke="black" points="502.16,-515.97 495.01,-508.15 495.72,-518.72 502.16,-515.97"/>
<text text-anchor="middle" x="554.5" y="-530.9" font-family="Times,serif" font-size="12.00">AMAN_Update</text>
</g>
<!-- 3&#45;&gt;9 -->
<g id="edge9" class="edge">
<title>3&#45;&gt;9</title>
<path fill="none" stroke="#806040" stroke-dasharray="5,2" d="M360.74,-28.02C446.32,-37.76 608,-62.93 608,-114 608,-488 608,-488 608,-488 608,-508.17 608.99,-530.83 609.99,-548.49"/>
<polygon fill="#806040" stroke="#806040" points="606.51,-549 610.6,-558.77 613.5,-548.58 606.51,-549"/>
<text text-anchor="middle" x="638.5" y="-297.9" font-family="Times,serif" font-size="12.00">Pass_Minute</text>
</g>
<!-- 3&#45;&gt;4 -->
<g id="edge16" class="edge">
<title>3&#45;&gt;4</title>
<path fill="none" stroke="#806040" stroke-dasharray="5,2" d="M257.28,-24.77C199.91,-27.96 112.68,-36.83 92,-61.5 85.78,-68.92 87.99,-77.68 93.43,-85.89"/>
<polygon fill="#806040" stroke="#806040" points="90.8,-88.21 99.77,-93.86 96.28,-83.85 90.8,-88.21"/>
<text text-anchor="middle" x="122.5" y="-64.9" font-family="Times,serif" font-size="12.00">Pass_Minute</text>
</g>
<!-- 3&#45;&gt;5 -->
<g id="edge17" class="edge">
<title>3&#45;&gt;5</title>
<path fill="none" stroke="#806040" stroke-dasharray="5,2" d="M299.82,-43.16C293.6,-57.14 285.38,-76.29 279,-93.5 268.66,-121.41 258.57,-153.82 251.71,-176.84"/>
<polygon fill="#806040" stroke="#806040" points="248.27,-176.13 248.8,-186.71 254.99,-178.11 248.27,-176.13"/>
<text text-anchor="middle" x="309.5" y="-111.9" font-family="Times,serif" font-size="12.00">Pass_Minute</text>
</g>
<!-- 3&#45;&gt;6 -->
<g id="edge18" class="edge">
<title>3&#45;&gt;6</title>
<path fill="none" stroke="#806040" stroke-dasharray="5,2" d="M320.58,-43.22C327.75,-56.92 336.26,-75.7 340,-93.5 355.26,-166.14 355.75,-187.97 340,-260.5 339.3,-263.74 338.3,-267.03 337.14,-270.27"/>
<polygon fill="#806040" stroke="#806040" points="333.84,-269.09 333.26,-279.67 340.31,-271.76 333.84,-269.09"/>
<text text-anchor="middle" x="382.5" y="-157.9" font-family="Times,serif" font-size="12.00">Pass_Minute</text>
</g>
<!-- 3&#45;&gt;7 -->
<g id="edge19" class="edge">
<title>3&#45;&gt;7</title>
<path fill="none" stroke="#806040" stroke-dasharray="5,2" d="M360.67,-39.3C393.55,-53.27 430,-77.07 430,-114 430,-302 430,-302 430,-302 430,-322.79 424.51,-345.52 419.01,-363.06"/>
<polygon fill="#806040" stroke="#806040" points="415.63,-362.14 415.82,-372.74 422.28,-364.34 415.63,-362.14"/>
<text text-anchor="middle" x="460.5" y="-204.9" font-family="Times,serif" font-size="12.00">Pass_Minute</text>
</g>
<!-- 3&#45;&gt;8 -->
<g id="edge20" class="edge">
<title>3&#45;&gt;8</title>
<path fill="none" stroke="#806040" stroke-dasharray="5,2" d="M360.64,-23.8C422.82,-27.82 519,-45.16 519,-114 519,-395 519,-395 519,-395 519,-416.14 511.61,-438.71 504.16,-456.09"/>
<polygon fill="#806040" stroke="#806040" points="500.76,-455.11 499.83,-465.67 507.14,-458 500.76,-455.11"/>
<text text-anchor="middle" x="549.5" y="-250.9" font-family="Times,serif" font-size="12.00">Pass_Minute</text>
</g>
<!-- 4&#45;&gt;3 -->
<g id="edge10" class="edge">
<title>4&#45;&gt;3</title>
<path fill="none" stroke="black" d="M137.91,-93.97C146.54,-82.92 158.54,-69.79 172,-61.5 194.74,-47.49 222.71,-38.45 247.43,-32.68"/>
<polygon fill="black" stroke="black" points="248.43,-36.04 257.44,-30.47 246.92,-29.21 248.43,-36.04"/>
<text text-anchor="middle" x="211.5" y="-64.9" font-family="Times,serif" font-size="12.00">AMAN_Update</text>
</g>
<!-- 5&#45;&gt;4 -->
<g id="edge11" class="edge">
<title>5&#45;&gt;4</title>
<path fill="none" stroke="black" d="M201.81,-186.94C191.67,-181.24 181.11,-174.63 172,-167.5 163.1,-160.54 154.37,-151.88 146.85,-143.67"/>
<polygon fill="black" stroke="black" points="149.29,-141.16 140.03,-136 144.06,-145.81 149.29,-141.16"/>
<text text-anchor="middle" x="211.5" y="-157.9" font-family="Times,serif" font-size="12.00">AMAN_Update</text>
</g>
<!-- 6&#45;&gt;5 -->
<g id="edge12" class="edge">
<title>6&#45;&gt;5</title>
<path fill="none" stroke="black" d="M282.41,-279.84C274.5,-274.41 266.85,-267.94 261,-260.5 256.03,-254.18 252.38,-246.4 249.72,-238.81"/>
<polygon fill="black" stroke="black" points="253.02,-237.64 246.76,-229.09 246.33,-239.68 253.02,-237.64"/>
<text text-anchor="middle" x="300.5" y="-250.9" font-family="Times,serif" font-size="12.00">AMAN_Update</text>
</g>
<!-- 7&#45;&gt;6 -->
<g id="edge13" class="edge">
<title>7&#45;&gt;6</title>
<path fill="none" stroke="black" d="M359.77,-372.97C351.26,-367.67 343.16,-361.22 337,-353.5 332.03,-347.27 328.71,-339.46 326.49,-331.81"/>
<polygon fill="black" stroke="black" points="329.88,-330.92 324.16,-322.01 323.07,-332.55 329.88,-330.92"/>
<text text-anchor="middle" x="376.5" y="-343.9" font-family="Times,serif" font-size="12.00">AMAN_Update</text>
</g>
<!-- 8&#45;&gt;7 -->
<g id="edge14" class="edge">
<title>8&#45;&gt;7</title>
<path fill="none" stroke="black" d="M446.77,-465.86C439.08,-460.72 431.7,-454.6 426,-447.5 420.74,-440.95 416.98,-432.77 414.3,-424.83"/>
<polygon fill="black" stroke="black" points="417.61,-423.67 411.46,-415.05 410.89,-425.63 417.61,-423.67"/>
<text text-anchor="middle" x="465.5" y="-437.9" font-family="Times,serif" font-size="12.00">AMAN_Update</text>
</g>
</g>
</svg>
